<?xml version="1.0" encoding="utf-8"?>
<!-- Generator: Adobe Illustrator 16.0.0, SVG Export Plug-In . SVG Version: 6.00 Build 0)  -->
<!DOCTYPE svg PUBLIC "-//W3C//DTD SVG 1.1//EN" "http://www.w3.org/Graphics/SVG/1.1/DTD/svg11.dtd">
<svg version="1.1" id="스타일_변경_x28_170711_x29_"
	 xmlns="http://www.w3.org/2000/svg" xmlns:xlink="http://www.w3.org/1999/xlink" x="0px" y="0px" width="944.987px"
	 height="740.285px" viewBox="0 0 944.987 740.285" enable-background="new 0 0 944.987 740.285" xml:space="preserve">
<path fill="#009EA8" d="M472.5,0C127.696,0,0,100.067,0,370.143c0,270.069,127.696,370.143,472.5,370.143
	c344.779,0,472.487-100.074,472.487-370.143C944.987,100.067,817.268,0,472.5,0z"/>
<g>
	<g>
		<path fill="#FFFFFF" d="M259.259,430.241c-2.672,0-4.834,2.166-4.834,4.834v19.912c-2.068-0.938-4.354-1.475-6.768-1.475h-12.498
			c-9.062,0-16.438,7.375-16.438,16.438v17.33c0,9.062,7.375,16.439,16.438,16.439h12.498c9.062,0,16.436-7.377,16.436-16.439
			v-17.33v-34.875C264.093,432.407,261.929,430.241,259.259,430.241z M254.425,487.28c0,3.732-3.037,6.77-6.768,6.77h-12.498
			c-3.732,0-6.767-3.037-6.767-6.77v-17.33c0-3.732,3.034-6.77,6.767-6.77h12.498c3.73,0,6.768,3.037,6.768,6.77V487.28z"/>
		<path fill="#FFFFFF" d="M367.116,453.512h-12.498c-9.062,0-16.435,7.375-16.435,16.438v17.33c0,9.062,7.372,16.439,16.435,16.439
			h12.498c2.672,0,4.834-2.166,4.834-4.836c0-2.668-2.162-4.834-4.834-4.834h-12.498c-3.729,0-6.767-3.037-6.767-6.77v-3.832h30.868
			c2.668,0,4.832-2.166,4.832-4.832v-8.666C383.552,460.887,376.18,453.512,367.116,453.512z M347.852,469.95
			c0-3.732,3.037-6.77,6.767-6.77h12.498c3.732,0,6.77,3.037,6.77,6.77v3.832h-26.034V469.95z"/>
		<path fill="#FFFFFF" d="M471.479,453.493h-12.453c-9.027,0-16.375,7.449-16.375,16.604v17.018c0,9.156,7.348,16.604,16.375,16.604
			h12.453c2.406,0,4.684-0.541,6.744-1.49l-0.003,8.393c0,3.77-3.023,6.836-6.741,6.836h-12.453c-2.66,0-4.814,2.188-4.814,4.883
			c0,2.699,2.154,4.887,4.814,4.887h12.453c9.029,0,16.377-7.451,16.377-16.605v-40.523
			C487.856,460.942,480.509,453.493,471.479,453.493z M471.479,493.952h-12.453c-3.716,0-6.739-3.07-6.739-6.838v-17.018
			c0-3.768,3.023-6.838,6.739-6.838h12.453c3.718,0,6.744,3.07,6.744,6.838v17.018C478.224,490.881,475.197,493.952,471.479,493.952
			z"/>
		<path fill="#FFFFFF" d="M620.4,453.493h-12.451c-2.404,0-4.686,0.543-6.742,1.488v-20.604c0-2.695-2.154-4.883-4.816-4.883
			c-2.66,0-4.814,2.188-4.814,4.883v35.229v29.229c0,2.697,2.154,4.885,4.814,4.885c2.662,0,4.816-2.188,4.816-4.885v-28.738
			c0-3.768,3.027-6.838,6.742-6.838H620.4c3.721,0,6.744,3.07,6.744,6.838v28.738c0,2.697,2.158,4.885,4.812,4.885
			c2.662,0,4.82-2.188,4.82-4.885v-28.738C636.777,460.942,629.434,453.493,620.4,453.493z"/>
		<path fill="#FFFFFF" d="M504.438,435.143c0-2.695-2.155-4.883-4.815-4.883c-2.659,0-4.817,2.188-4.817,4.883v51.971
			c0,9.156,7.345,16.605,16.375,16.605c2.662,0,4.817-2.188,4.817-4.885c0-2.695-2.155-4.883-4.817-4.883
			c-3.719,0-6.742-3.066-6.742-6.838V435.143z"/>
		<path fill="#FFFFFF" d="M406.874,453.493h12.453c9.03,0,16.375,6.961,16.375,16.115v29.229c0,2.699-2.152,4.883-4.818,4.883
			c-2.66,0-4.812-2.184-4.812-4.883v-29.229c0-3.77-3.028-6.346-6.744-6.346h-12.453c-3.719,0-6.744,2.576-6.744,6.346v29.229
			c0,2.699-2.155,4.883-4.815,4.883c-2.663,0-4.815-2.184-4.815-4.883v-29.229C390.499,460.454,397.845,453.493,406.874,453.493z"/>
		<g>
			<g>
				<path fill="#FFFFFF" d="M206.957,453.493c-2.663,0-4.817,2.186-4.817,4.883v40.461c0,2.699,2.154,4.883,4.817,4.883
					c2.66,0,4.815-2.184,4.815-4.883v-40.461C211.772,455.678,209.617,453.493,206.957,453.493z"/>
				<ellipse fill="#FFFFFF" cx="206.957" cy="442.472" rx="4.815" ry="4.882"/>
			</g>
		</g>
		<g>
			<g>
				<path fill="#FFFFFF" d="M527.763,453.493c-2.662,0-4.817,2.186-4.817,4.883v40.461c0,2.699,2.155,4.883,4.817,4.883
					c2.66,0,4.815-2.184,4.815-4.883v-40.461C532.578,455.678,530.423,453.493,527.763,453.493z"/>
				<ellipse fill="#FFFFFF" cx="527.763" cy="442.472" rx="4.815" ry="4.882"/>
			</g>
		</g>
		<path fill="#FFFFFF" d="M301.262,473.551h-6.649h-6.634h-2.058c-2.904,0-5.268-2.398-5.268-5.344s2.363-5.342,5.268-5.342h25.413
			c2.654,0,4.807-2.18,4.807-4.871c0-2.688-2.152-4.873-4.807-4.873h-25.413c-8.205,0-14.879,6.768-14.879,15.086
			s6.674,15.086,14.879,15.086h2.058h6.634h6.649c2.907,0,5.269,2.396,5.269,5.34c0,2.945-2.361,5.342-5.269,5.342h-25.413
			c-2.657,0-4.807,2.184-4.807,4.873s2.149,4.871,4.807,4.871h25.413c8.202,0,14.879-6.766,14.879-15.086
			C316.141,480.315,309.464,473.551,301.262,473.551z"/>
		<path fill="#FFFFFF" d="M569.749,473.551H563.1h-6.634h-2.058c-2.904,0-5.269-2.398-5.269-5.344s2.364-5.342,5.269-5.342h25.412
			c2.654,0,4.807-2.18,4.807-4.871c0-2.688-2.152-4.873-4.807-4.873h-25.412c-8.205,0-14.879,6.768-14.879,15.086
			s6.674,15.086,14.879,15.086h2.058h6.634h6.649c2.907,0,5.269,2.396,5.269,5.34c0,2.945-2.361,5.342-5.269,5.342h-25.413
			c-2.657,0-4.807,2.184-4.807,4.873s2.149,4.871,4.807,4.871h25.413c8.202,0,14.878-6.766,14.878-15.086
			C584.627,480.315,577.951,473.551,569.749,473.551z"/>
		<g>
			<g>
				<g>
					<path fill="#FFFFFF" d="M193.769,495.403l-20.076-20.078l17.297-17.295c1.908-1.908,1.93-4.977,0.049-6.857
						c-1.883-1.883-4.95-1.861-6.858,0.047l-20.617,20.613c-0.741,0.742-1.188,2.088-1.36,3.043
						c-0.005,0.033-0.002,0.066-0.008,0.096c-0.043,0.26-0.073,0.523-0.07,0.787c0,0.236,0.029,0.473,0.062,0.709
						c0.008,0.057,0.008,0.113,0.02,0.17c0.17,0.953,0.618,1.441,1.359,2.18l23.394,23.396c1.908,1.908,4.976,1.93,6.856,0.049
						C195.698,500.379,195.677,497.311,193.769,495.403z"/>
				</g>
				<g>
					<path fill="#FFFFFF" d="M158.579,430.26c-2.66,0-4.814,2.188-4.814,4.883v34.467v29.23c0,2.695,2.154,4.883,4.814,4.883
						s4.815-2.188,4.815-4.883v-63.697C163.395,432.448,161.239,430.26,158.579,430.26z"/>
				</g>
			</g>
		</g>
	</g>
	<g>
		<g>
			<g>
				<g>
					<path fill="#FFFFFF" d="M435.207,270.304c0-9.464,7.672-17.134,17.133-17.134c9.463,0,17.135,7.67,17.135,17.134v107.872
						c0,9.463-7.672,17.133-17.135,17.133c-9.461,0-17.133-7.67-17.133-17.133V270.304z"/>
				</g>
				<g>
					<path fill="#FFFFFF" d="M402.65,361.04h-41.343v-90.735c0-9.464-7.671-17.134-17.134-17.134
						c-9.465,0-17.136,7.67-17.136,17.134v107.872c0,9.463,7.671,17.133,17.136,17.133h58.476c9.466,0,17.133-7.672,17.133-17.133
						C419.782,368.709,412.115,361.04,402.65,361.04z"/>
				</g>
			</g>
			<g>
				<g>
					<path fill="#FFFFFF" d="M624.596,361.04c9.467,0,17.137,7.67,17.137,17.137c0,9.463-7.67,17.133-17.137,17.133H502.938
						c-9.464,0-17.136-7.67-17.136-17.133c0-9.467,7.672-17.137,17.136-17.137H624.596z"/>
				</g>
				<g>
					<path fill="#FFFFFF" d="M632.539,311.361l-56.654-56.653c-6.693-6.691-17.54-6.691-24.232,0l-56.65,56.653
						c-6.695,6.692-6.695,17.54,0,24.233c6.689,6.691,17.537,6.691,24.229,0l44.537-44.537l44.534,44.537
						c6.695,6.691,17.541,6.691,24.236,0C639.232,328.901,639.232,318.053,632.539,311.361z"/>
				</g>
			</g>
			<g>
				<g>
					<path fill="#FFFFFF" d="M783.088,361.04H675.217c-9.465,0-17.135,7.67-17.135,17.137c0,9.463,7.67,17.133,17.135,17.133h65.033
						v28.998c0,9.465,7.672,17.135,17.133,17.135c9.469,0,17.137-7.67,17.137-17.135v-28.998h8.568
						c9.463,0,17.135-7.67,17.135-17.133C800.223,368.709,792.551,361.04,783.088,361.04z"/>
				</g>
				<g>
					<path fill="#FFFFFF" d="M774.432,268.553c-0.877-8.643-8.174-15.383-17.049-15.383h-82.166c-9.465,0-17.135,7.67-17.135,17.134
						c0,9.466,7.67,17.136,17.135,17.136h65.033v17.135h-65.033c-9.465,0-17.135,7.67-17.135,17.137
						c0,9.463,7.67,17.133,17.135,17.133h65.107c0.762,8.763,8.1,15.641,17.059,15.641c9.469,0,17.137-7.672,17.137-17.136v-67.045
						C774.52,269.713,774.492,269.128,774.432,268.553z"/>
				</g>
				<g>
					<path fill="#FFFFFF" d="M731.682,537.36c23.662,0,42.838-19.178,42.838-42.834c0-23.658-19.176-42.84-42.838-42.84h-56.465
						c-9.463,0-17.135,7.676-17.135,17.137c0,9.465,7.672,17.135,17.135,17.135h56.465c4.734,0,8.568,3.838,8.568,8.568
						s-3.834,8.566-8.568,8.566l-30.762-0.004c-23.662,0-42.838,19.182-42.838,42.836c0,23.66,19.176,42.84,42.838,42.84h22.195
						c9.461,0,17.135-7.676,17.135-17.135c0-9.465-7.674-17.137-17.135-17.137H700.92c-4.734,0-8.566-3.832-8.566-8.568
						c0-4.73,3.832-8.566,8.566-8.566L731.682,537.36z"/>
				</g>
			</g>
			<g>
				<g>
					<g>
						<path fill="#FFFFFF" d="M234.725,253.17h-66.825c-9.463,0-17.135,7.672-17.135,17.134v107.872
							c0,9.461,7.672,17.133,17.135,17.133h66.825c9.465,0,17.137-7.672,17.137-17.133V270.304
							C251.861,260.842,244.189,253.17,234.725,253.17z M220.371,331.504l-23.578,18.736v-0.004
							c-1.39,0.979-3.078,1.562-4.906,1.562c-4.73,0-8.566-3.837-8.566-8.567v-37.982c0-4.731,3.836-8.566,8.566-8.566
							c1.828,0,3.517,0.583,4.906,1.56v-0.036l23.716,18.845c0.511,0.331,0.998,0.704,1.428,1.135l0.005,0.003v0.001
							c1.547,1.552,2.502,3.688,2.502,6.052C224.443,327.317,222.807,329.993,220.371,331.504z"/>
					</g>
				</g>
				<g>
					<path fill="#FFFFFF" d="M272.423,173.696v204.48c0,9.463,7.671,17.133,17.134,17.133c9.462,0,17.135-7.67,17.135-17.133
						v-204.48H272.423z"/>
				</g>
				<g>
					<path fill="#FFFFFF" d="M306.709,167.159l-12.869-22.291v-3.062c0-2.367-1.916-4.284-4.283-4.284
						c-2.365,0-4.284,1.917-4.284,4.284v3.091l-12.85,22.262H306.709z"/>
				</g>
			</g>
		</g>
	</g>
</g>
</svg>
